<svg width="1200" height="900" viewBox="0 0 1200 900" fill="none" xmlns="http://www.w3.org/2000/svg">
  <rect width="1200" height="900" rx="48" fill="#09131E"/>
  <rect width="1200" height="900" rx="48" fill="url(#paint0_radial)" fill-opacity="0.65"/>
  <rect x="40" y="40" width="1120" height="820" rx="36" fill="url(#paint1_linear)" fill-opacity="0.28" stroke="white" stroke-opacity="0.12"/>
  <circle cx="950" cy="180" r="180" fill="#D8FF63" fill-opacity="0.12"/>
  <circle cx="190" cy="210" r="220" fill="#5FE6CF" fill-opacity="0.16"/>
  <circle cx="600" cy="720" r="260" fill="#FF9A76" fill-opacity="0.1"/>
  <rect x="118" y="560" width="964" height="168" rx="28" fill="white" fill-opacity="0.06" stroke="white" stroke-opacity="0.08"/>
  <circle cx="334" cy="378" r="82" fill="#D8FF63" fill-opacity="0.85"/>
  <circle cx="600" cy="338" r="92" fill="#5FE6CF" fill-opacity="0.92"/>
  <circle cx="866" cy="378" r="82" fill="#F8E7C6" fill-opacity="0.86"/>
  <path d="M210 604C210 525.576 273.576 462 352 462H356C434.424 462 498 525.576 498 604V618H210V604Z" fill="white" fill-opacity="0.14"/>
  <path d="M452 586C452 492.112 528.112 416 622 416H630C723.888 416 800 492.112 800 586V618H452V586Z" fill="white" fill-opacity="0.17"/>
  <path d="M702 604C702 525.576 765.576 462 844 462H848C926.424 462 990 525.576 990 604V618H702V604Z" fill="white" fill-opacity="0.14"/>
  <text x="120" y="145" fill="#F5F7FB" font-family="Arial, sans-serif" font-size="82" font-weight="700">TEAMFOTO PLATZHALTER</text>
  <text x="120" y="208" fill="#9FB0C4" font-family="Arial, sans-serif" font-size="34">Hier kann direkt euer echtes Teamfoto eingesetzt werden.</text>
  <text x="120" y="760" fill="#F5F7FB" font-family="Arial, sans-serif" font-size="44" font-weight="700">Nachfrass-Profis</text>
  <text x="120" y="812" fill="#9FB0C4" font-family="Arial, sans-serif" font-size="28">Persönlich im Ton. Klar im Prozess. Sauber dokumentiert.</text>
  <defs>
    <radialGradient id="paint0_radial" cx="0" cy="0" r="1" gradientUnits="userSpaceOnUse" gradientTransform="translate(600 450) rotate(90) scale(560 746.667)">
      <stop stop-color="#14202C"/>
      <stop offset="1" stop-color="#09131E"/>
    </radialGradient>
    <linearGradient id="paint1_linear" x1="100" y1="80" x2="1030" y2="820" gradientUnits="userSpaceOnUse">
      <stop stop-color="white" stop-opacity="0.22"/>
      <stop offset="1" stop-color="white" stop-opacity="0"/>
    </linearGradient>
  </defs>
</svg>
